<svg width="40" height="40" viewBox="0 0 40 40" fill="none" xmlns="http://www.w3.org/2000/svg">
<g clip-path="url(#clip0)">
<path d="M39.5807 11.6342L36.3202 6.09007L32.9171 0.305361C32.6778 -0.101787 32.0081 -0.101787 31.7682 0.305361L29.2694 4.55343L28.3764 6.07141L26.8611 4.21892C26.6079 3.90972 26.0828 3.90972 25.8296 4.21892L19.8323 11.5489C19.6691 11.7482 19.6357 12.0234 19.7457 12.2566C19.8556 12.4898 20.0909 12.6378 20.3481 12.6378H32.3426H39.0063C39.2455 12.6378 39.4661 12.5098 39.5847 12.3026C39.7033 12.0947 39.702 11.8401 39.5807 11.6342ZM32.3426 1.95728L34.2358 5.17582L33.3069 4.71136C33.0923 4.60474 32.8378 4.62007 32.6392 4.75267L31.1945 5.71557L30.6301 4.86929L32.3426 1.95728ZM26.3454 5.69358L28.2452 8.01519L28.0866 8.33238L26.7152 7.41813C26.4913 7.26887 26.2001 7.26887 25.9762 7.41813L24.5015 8.40102L24.3236 8.16446L26.3454 5.69358ZM21.7541 11.305L23.454 9.22731L23.8132 9.70576C23.9438 9.87968 24.1437 9.9723 24.3463 9.9723C24.4736 9.9723 24.6022 9.93565 24.7154 9.86035L26.3454 8.77418L27.9746 9.86035C28.1339 9.96631 28.3298 9.99763 28.5157 9.94965C28.7003 9.901 28.8549 9.77439 28.9409 9.6038L29.1701 9.14535L30.9366 11.305H21.7541ZM32.6585 11.305L29.276 7.17091L29.8791 6.14538L30.4555 7.00965C30.5841 7.2029 30.7953 7.30685 31.0106 7.30685C31.1372 7.30685 31.2658 7.27086 31.3797 7.1949L33.057 6.07674L35.3766 7.23688C35.4033 7.25021 35.4332 7.24887 35.4606 7.2582L37.8408 11.305H32.6585Z" fill="#2F9AAA"/>
<path d="M23.6391 35.9605C22.1464 35.9605 20.9316 37.1746 20.9316 38.6673V39.3336C20.9316 39.7015 21.2302 40 21.598 40H25.5962C25.932 40 26.2159 39.7501 26.2572 39.4163L26.3405 38.7499C26.3445 38.7233 26.3458 38.6953 26.3458 38.6673C26.3458 37.1746 25.1317 35.9605 23.6391 35.9605ZM25.0078 38.6673H22.2644C22.2644 37.9096 22.8808 37.2932 23.6384 37.2932C24.3841 37.2932 24.9925 37.8896 25.0125 38.63L25.0078 38.6673Z" fill="#2F9AAA"/>
<path d="M36.9665 35.9605C35.4739 35.9605 34.2598 37.1746 34.2598 38.6673C34.2598 38.6966 34.2618 38.7259 34.2658 38.7552L34.3491 39.3803C34.3924 39.7115 34.6749 39.9587 35.0088 39.9587H39.0069C39.3748 39.9587 39.6733 39.6602 39.6733 39.2923V38.6673C39.6733 37.1746 38.4592 35.9605 36.9665 35.9605ZM35.5925 38.626C35.6145 37.8876 36.2222 37.2932 36.9665 37.2932C37.7109 37.2932 38.3179 37.8876 38.3406 38.626H35.5925Z" fill="#2F9AAA"/>
<path d="M11.0202 38.6259H9.6875V39.9587H11.0202V38.6259Z" fill="#2F9AAA"/>
<path d="M15.0183 37.2932H13.6855V38.6259H15.0183V37.2932Z" fill="#2F9AAA"/>
<path d="M19.0163 35.9605H17.6836V37.2932H19.0163V35.9605Z" fill="#2F9AAA"/>
<path d="M37.4571 30.4357L39.8081 29.9499L39.5382 28.6445L36.6595 29.2396L35.8099 27.9642H38.3407C38.5833 27.9642 38.8065 27.8322 38.9238 27.6196C39.0411 27.4071 39.0338 27.1479 38.9045 26.9426L35.7719 21.9669H37.6744C37.9503 21.9669 38.1975 21.797 38.2968 21.5391C38.3954 21.2812 38.3254 20.9893 38.1202 20.8047L31.4565 14.8075C31.2093 14.5849 30.8355 14.5782 30.5809 14.7935L23.4728 20.7907C23.2589 20.9713 23.181 21.2659 23.2769 21.5284C23.3735 21.7923 23.6234 21.9669 23.9026 21.9669H25.989L22.6819 26.928C22.5453 27.1325 22.5326 27.3951 22.6485 27.6116C22.7652 27.8289 22.9911 27.9642 23.2363 27.9642H25.288L21.705 33.0832L19.9937 33.5256L18.5551 33.8975L15.0167 23.1883L14.992 20.6275C14.9887 20.2623 14.6908 19.9678 14.3257 19.9678H11.9194L10.2135 18.6031C12.3565 18.3605 14.0618 16.662 14.3157 14.5229L15.6697 13.8006C16.4294 13.3954 16.9858 12.6838 17.1957 11.8488C17.4056 11.0139 17.2523 10.1236 16.7745 9.40659C15.8976 8.09252 14.1857 7.66204 12.7917 8.40504L11.8275 8.91881C11.0205 8.30708 10.0409 7.97324 9.02073 7.97324C6.44856 7.97324 4.35618 10.0656 4.35618 12.6378C4.35618 12.869 4.37684 13.1109 4.42015 13.3794C4.45414 13.592 4.58874 13.7753 4.78132 13.8712C4.85862 13.9092 4.94258 13.9219 5.02588 13.9285C5.02521 13.9425 5.02255 13.9565 5.02255 13.9705C5.02255 14.8001 5.24311 15.5791 5.62427 16.2548L4.16827 16.0929C3.24002 15.9929 2.34709 16.5587 2.05056 17.4469L0.310685 22.6672C0.104779 23.2843 0.2054 23.9406 0.585894 24.4684C0.965721 24.9962 1.55679 25.2987 2.20716 25.2987H3.02345V27.2978C3.02345 27.5643 3.18205 27.8056 3.42727 27.9102L3.73246 28.0408L4.29421 37.5858L0.191406 38.6473L0.525255 39.9381L21.5224 34.5079C21.5277 34.5118 21.5344 34.5132 21.5404 34.5165C21.577 34.5405 21.6163 34.5578 21.6563 34.5738C21.6756 34.5818 21.6923 34.5925 21.7123 34.5978C21.7736 34.6165 21.8376 34.6278 21.9035 34.6278H28.4786L27.9062 39.2097C27.8822 39.3996 27.9415 39.5902 28.0681 39.7335C28.194 39.8767 28.3766 39.9587 28.5672 39.9587H32.5654C32.7566 39.9587 32.9385 39.8767 33.0651 39.7335C33.1917 39.5902 33.2504 39.3996 33.2271 39.2097L32.654 34.6278H39.0071C39.253 34.6278 39.4789 34.4925 39.5948 34.276C39.7108 34.0594 39.6981 33.7962 39.5615 33.5923L37.4571 30.4357ZM11.2697 21.1539C11.3883 21.2492 11.5349 21.3005 11.6862 21.3005H13.666L13.6786 22.6332H10.5867L8.19777 20.7221L8.8728 19.2368L11.2697 21.1539ZM13.4194 9.58117C14.2064 9.16203 15.1713 9.40459 15.6664 10.1462C15.9396 10.5567 16.0242 11.0458 15.9036 11.5236C15.7837 12.0014 15.4778 12.3926 15.0427 12.6245L14.2597 13.0416C14.2257 12.871 14.1791 12.7051 14.1271 12.5412C14.1157 12.5065 14.1024 12.4725 14.0904 12.4385C14.0245 12.2486 13.9478 12.0634 13.8592 11.8848C13.8479 11.8628 13.8392 11.8395 13.8279 11.8182C13.7299 11.6302 13.6173 11.451 13.4954 11.2784C13.4694 11.2418 13.4434 11.2058 13.4167 11.1705C13.2901 11.0019 13.1542 10.8406 13.0056 10.69C12.9856 10.67 12.9643 10.652 12.9443 10.6327C12.8017 10.4941 12.6497 10.3648 12.4898 10.2449C12.4625 10.2242 12.4372 10.2029 12.4092 10.1829C12.3925 10.1709 12.3779 10.1576 12.3612 10.1456L13.4194 9.58117ZM10.9612 10.8926C12.2006 11.403 13.0156 12.6071 13.0162 13.9992C13.0003 15.8223 11.5143 17.3023 9.68709 17.3023C9.37857 17.3023 9.08537 17.2464 8.8015 17.1677C8.62824 17.1197 8.45898 17.0631 8.29772 16.9891C8.22709 16.9565 8.16112 16.9152 8.09315 16.8779C7.96054 16.8052 7.8306 16.7266 7.70799 16.6353C6.8917 16.0276 6.35527 15.064 6.35527 13.9705C6.35527 13.7519 6.37793 13.532 6.42324 13.3128L10.6673 11.0492L10.9612 10.8926ZM9.02073 9.30596C9.52983 9.30596 10.0249 9.42191 10.4741 9.64115L8.63824 10.62L5.72089 12.176C5.94613 10.5567 7.34016 9.30596 9.02073 9.30596ZM3.68982 23.966H2.20716C1.99059 23.966 1.79335 23.8654 1.66607 23.6888C1.53946 23.5128 1.50614 23.2943 1.57478 23.089L3.31465 17.8687C3.40528 17.5955 3.6645 17.4129 3.9477 17.4129C3.97169 17.4129 3.99635 17.4143 4.02033 17.4169L6.947 17.7421C6.96366 17.7541 6.98166 17.7635 6.99831 17.7754C7.09894 17.8468 7.20356 17.9127 7.30951 17.9767C7.34416 17.9973 7.37748 18.0193 7.41213 18.0393C7.55539 18.1193 7.702 18.1939 7.85326 18.2592L5.25977 23.966H3.68982ZM6.99632 36.8868L5.60895 37.2453L5.10184 28.6279L7.07628 29.4741L7.56139 36.7408L6.99632 36.8868ZM8.87413 36.4017L8.51229 30.9775L11.1498 35.8133L8.87413 36.4017ZM12.4805 35.4694L8.9401 28.9784C8.8688 28.8471 8.75485 28.7438 8.61758 28.6852L6.57384 27.8096L4.63605 26.9786C4.63539 26.9786 4.63539 26.9786 4.63472 26.9779L4.35618 26.8587V25.2987H5.68891C5.95012 25.2987 6.18735 25.1461 6.2953 24.9082L7.62869 21.9742L7.688 22.0209V25.2987C7.688 25.5086 7.78662 25.7058 7.95455 25.8318L10.5027 27.7429L14.3963 34.9736L12.4805 35.4694ZM15.7244 34.6298L11.6062 26.9819C11.5602 26.8973 11.4963 26.8227 11.4196 26.7647L9.02073 24.9655V23.0864L9.93698 23.8194C10.0556 23.9147 10.2022 23.966 10.3535 23.966H13.8699L17.2623 34.232L15.7244 34.6298ZM29.3228 38.626L29.8226 34.6278H31.3113L31.811 38.626H29.3228ZM31.899 33.2951H29.2335H23.1836L27.1138 27.6796C27.2564 27.4764 27.2738 27.2105 27.1592 26.9899C27.0445 26.77 26.8173 26.6314 26.5681 26.6314H24.4817L27.7889 21.6703C27.9255 21.4658 27.9381 21.2032 27.8222 20.9867C27.7062 20.7694 27.4803 20.6342 27.2345 20.6342H25.7258L30.9967 16.1868L35.9378 20.6342H34.5645C34.3219 20.6342 34.0987 20.7661 33.9814 20.9787C33.8641 21.1912 33.8714 21.4504 34.0007 21.6557L37.1333 26.6314H34.5645C34.3186 26.6314 34.0927 26.7667 33.9767 26.9833C33.8608 27.1998 33.8734 27.4631 34.01 27.667L37.7617 33.2951H31.899Z" fill="#2F9AAA"/>
</g>
<defs>
<clipPath id="clip0">
<rect width="40" height="40" fill="white"/>
</clipPath>
</defs>
</svg>
