<svg width="44" height="44" viewBox="0 0 44 44" fill="none" xmlns="http://www.w3.org/2000/svg">
<g clip-path="url(#clip0)">
<path d="M10.6506 17.4313C10.4991 17.217 10.2447 17.1001 9.98341 17.1244C9.72212 17.1488 9.49374 17.3109 9.38459 17.5495C8.60097 19.2779 8.60097 21.2603 9.38459 22.9887C9.50449 23.249 9.76483 23.4157 10.0514 23.4157C10.3013 23.4157 10.5341 23.2884 10.669 23.0779C10.8038 22.8674 10.8221 22.6027 10.7175 22.3756C10.1125 21.0364 10.1125 19.5018 10.7175 18.1626C10.8276 17.9245 10.8021 17.6456 10.6506 17.4313Z" fill="#2F9AAA"/>
<path d="M8.51197 16.0766C8.72264 15.7318 8.6146 15.2815 8.27045 15.0698C7.9263 14.858 7.47566 14.9646 7.26284 15.3081C5.39676 18.3523 5.39676 22.186 7.26284 25.2302C7.39633 25.4475 7.63312 25.5797 7.88814 25.5793C8.15364 25.579 8.39826 25.4352 8.5277 25.2033C8.65714 24.9715 8.65113 24.6877 8.51206 24.4616C6.93614 21.8887 6.93614 18.6495 8.51197 16.0766Z" fill="#2F9AAA"/>
<path d="M33.6405 17.1909C33.2729 17.36 33.1116 17.7948 33.28 18.1627C33.885 19.5019 33.885 21.0366 33.28 22.3758C33.111 22.7439 33.272 23.1793 33.64 23.3488C34.0081 23.5179 34.4435 23.3568 34.613 22.9889C35.3966 21.2605 35.3966 19.278 34.613 17.5496C34.4432 17.1824 34.0081 17.0219 33.6405 17.1909Z" fill="#2F9AAA"/>
<path d="M35.7262 15.0677C35.3812 15.2799 35.2736 15.7316 35.4858 16.0766C37.0616 18.6495 37.0616 21.8886 35.4858 24.4615C35.3838 24.6271 35.3518 24.8265 35.3969 25.0157C35.4419 25.2049 35.5604 25.3684 35.7262 25.4703C35.8918 25.5723 36.0912 25.6043 36.2804 25.5592C36.4695 25.5141 36.6331 25.3957 36.735 25.23C38.601 22.1858 38.601 18.3521 36.735 15.308C36.5228 14.9631 36.0711 14.8555 35.7262 15.0677Z" fill="#2F9AAA"/>
<path d="M43.9045 13.6912C43.9029 13.1072 43.6677 12.5481 43.2513 12.1386L31.6132 0.635634C31.2002 0.22221 30.6378 -0.00685009 30.0535 0.000283853L13.691 0.0955177C13.107 0.0971507 12.5479 0.332313 12.1385 0.748746L0.635705 12.3865C0.226664 12.8025 -0.00179436 13.3631 1.06145e-05 13.9465L0.0952444 30.309C0.0968775 30.893 0.33204 31.4521 0.748473 31.8616L12.3863 43.3643C12.7994 43.7704 13.3552 43.9986 13.9345 44H13.9463L30.3089 43.9048C30.8928 43.9032 31.4519 43.668 31.8614 43.2516L43.3641 31.6138C43.7732 31.1978 44.0016 30.6372 43.9998 30.0538L43.9045 13.6912ZM42.3209 30.582L30.8178 42.2201C30.6815 42.359 30.4952 42.4373 30.3006 42.4379L13.938 42.5331H13.9341C13.7409 42.5328 13.5556 42.4566 13.418 42.3211L1.77989 30.818C1.64107 30.6817 1.56269 30.4955 1.56217 30.3009L1.46694 13.9383C1.46625 13.7438 1.5424 13.5568 1.67898 13.4183L13.1821 1.78016C13.3184 1.64135 13.5046 1.56296 13.6992 1.56244L30.0618 1.46721H30.0658C30.2588 1.46755 30.4439 1.54354 30.5815 1.67891L30.5818 1.67925L42.22 13.1823C42.3588 13.3187 42.4372 13.5049 42.4377 13.6995L42.5329 30.0621C42.5337 30.2565 42.4575 30.4435 42.3209 30.582Z" fill="#2F9AAA"/>
<path d="M40.5525 13.5817L30.2058 3.35681C29.9317 3.08494 29.5609 2.9329 29.1748 2.93384H29.1665L14.619 3.01833C14.2297 3.01945 13.857 3.17631 13.5839 3.45385L3.35764 13.7981C3.08311 14.0742 2.93046 14.4487 2.93364 14.8381L3.01813 29.3831C3.01925 29.7725 3.17628 30.1452 3.45399 30.4181L13.8007 40.6431C14.0749 40.9149 14.4457 41.067 14.8318 41.066H14.84L29.3876 40.9816C29.7769 40.9804 30.1495 40.8236 30.4226 40.546L40.649 30.2018C40.9235 29.9257 41.0762 29.5512 41.073 29.1618L40.9885 14.6171C40.9873 14.2276 40.8303 13.8548 40.5525 13.5817ZM29.3793 39.5146L14.8317 39.5991L4.48532 29.3745L3.75155 29.3788L4.48497 29.3745L4.40048 14.8298L14.6272 4.48526L29.1748 4.40077L39.5216 14.6253L39.606 29.1701L29.3793 39.5146Z" fill="#2F9AAA"/>
<g clip-path="url(#clip1)">
<path d="M26.9678 32.4831C26.2316 32.4826 25.564 32.1054 25.1818 31.4743C25.0384 31.2374 24.731 31.162 24.495 31.3062C24.2592 31.4503 24.1842 31.7592 24.3277 31.9961C24.5934 32.4351 24.9534 32.7896 25.3725 33.0435L24.8529 35.405L23.6049 33.9593C23.8369 33.6917 23.7715 33.3865 23.5821 33.2209C23.3739 33.0388 23.0582 33.0606 22.8769 33.2698L21.9973 34.2846L19.785 31.8118C19.9733 31.4491 20.0877 31.0512 20.1209 30.6363C24.4017 31.8963 28.6853 28.6828 28.6965 24.2096C28.6965 24.0387 28.699 20.3712 28.6992 20.1218C28.7006 18.1791 27.1367 16.6058 25.2025 16.6044L18.8291 16.6C16.8855 16.6 15.3289 18.1777 15.3276 20.1129L15.3253 23.3693C14.9914 23.1954 14.7634 22.8503 14.7636 22.4493L14.7677 16.3316C14.7682 15.6742 15.3006 15.1397 15.9549 15.1397C16.166 15.1397 16.346 15.01 16.4201 14.8244C17.0923 13.1396 18.7204 12.0043 20.5724 12.0043L27.2938 12.0089L26.6739 13.6512C26.5707 13.9249 26.7216 14.2296 27.0018 14.3114L27.8679 14.5644C28.6957 14.8061 29.3231 15.5679 29.3265 16.501L29.3224 22.4593C29.3222 22.7366 29.5459 22.9616 29.8219 22.9618C30.0991 22.9618 30.322 22.7364 30.3222 22.46C30.3222 22.4229 30.3263 16.5152 30.3262 16.4781C30.3216 15.1569 29.4254 13.9733 28.147 13.5999L27.8006 13.4988L28.4851 11.6853C28.6089 11.3572 28.3674 11.0054 28.018 11.0051L20.573 11C18.4279 10.9994 16.5077 12.2507 15.6171 14.1616C14.5716 14.3251 13.7688 15.2354 13.768 16.3309L13.7639 22.4486C13.7633 23.4242 14.4427 24.2222 15.3293 24.4352C15.4208 27.0232 16.9648 29.2169 19.1322 30.2567L19.1321 30.3847C19.1314 31.5422 18.1974 32.4762 17.0436 32.4762C14.3446 32.4278 11.881 34.6861 11.879 37.6558L11.877 40.6222C11.8768 40.8995 12.1004 41.1245 12.3765 41.1247C12.6537 41.1247 12.8765 40.8993 12.8767 40.6228L12.8788 37.6564C12.8803 35.3491 14.739 33.4806 17.0383 33.4806C17.2119 33.4836 17.4597 33.4615 17.6945 33.4113L18.3898 36.5918C18.478 36.9951 18.9868 37.1237 19.2553 36.8136L21.0553 34.7342L21.5033 35.2349L21.5012 38.2435C21.501 38.5209 21.7247 38.7458 22.0008 38.746C22.278 38.746 22.5008 38.5206 22.501 38.2442L22.503 35.2306L22.9419 34.7242L24.7488 36.8174C25.0178 37.129 25.5262 36.9986 25.6146 36.5967L26.3142 33.4171C26.5259 33.4625 26.7443 33.4872 26.9672 33.4873C29.2661 33.4888 31.1258 35.3591 31.1241 37.669L31.1221 40.6354C31.1219 40.9127 31.3455 41.1377 31.6216 41.1379C31.8988 41.1379 32.1217 40.9125 32.1218 40.636L32.1238 37.6696C32.1259 34.8051 29.8198 32.4849 26.9678 32.4831ZM16.3245 24.1838L16.3273 20.1136C16.3282 18.7296 17.4492 17.6044 18.8266 17.6044C18.8296 17.6044 25.1987 17.6088 25.2017 17.6088C26.583 17.6098 27.7004 18.7332 27.6994 20.1212L27.6966 24.2155C27.6835 27.3588 25.1494 29.9031 22.0066 29.9031C18.8736 29.9009 16.3245 27.358 16.3245 24.1838ZM19.1531 35.4011L18.6365 33.0382C18.8271 32.9228 19.006 32.7852 19.1709 32.6279L20.3819 33.9815L19.1531 35.4011Z" fill="#2F9AAA"/>
</g>
</g>
<defs>
<clipPath id="clip0">
<rect width="44" height="44" fill="white"/>
</clipPath>
<clipPath id="clip1">
<rect width="30" height="23" fill="white" transform="translate(7 11)"/>
</clipPath>
</defs>
</svg>
