<svg width="21" height="21" viewBox="0 0 21 21" fill="none" xmlns="http://www.w3.org/2000/svg">
<path d="M6.42715 14.4827C5.77905 16.217 4.39594 19.9029 4.07008 20.7646C4.01803 20.9057 3.88374 20.9995 3.73336 20.9999H0.652149C0.521047 20.9989 0.400752 20.927 0.337656 20.8121C0.27456 20.6972 0.278521 20.5571 0.348011 20.446C0.348011 20.4423 3.37853 15.587 4.47198 13.8455C5.04722 14.2448 5.72708 14.4664 6.42715 14.4827Z" fill="#2F9AAA"/>
<path d="M20.3492 20.9999H17.268C17.1176 20.9995 16.9833 20.9057 16.9313 20.7646C16.6054 19.9029 15.2223 16.217 14.5742 14.4827C15.2743 14.4664 15.9542 14.2448 16.5294 13.8455C17.6228 15.587 20.6534 20.4423 20.6534 20.446C20.7228 20.5571 20.7268 20.6972 20.6637 20.8121C20.6006 20.927 20.4803 20.9989 20.3492 20.9999Z" fill="#2F9AAA"/>
<path d="M3.62109 7.63232V10.862C3.62109 12.4617 4.91792 13.7585 6.51764 13.7585H7.60385C7.60385 12.1654 7.60385 9.26163 3.62109 7.63232ZM5.7935 11.5861H5.06937C4.8694 11.5861 4.7073 11.424 4.7073 11.224C4.7073 11.0241 4.8694 10.862 5.06937 10.862H5.7935C5.99347 10.862 6.15557 11.0241 6.15557 11.224C6.15557 11.424 5.99347 11.5861 5.7935 11.5861Z" fill="#2F9AAA"/>
<path d="M5.79297 5.43098V5.86909C6.32216 6.1579 6.82284 6.49613 7.28831 6.87926H10.1378V2.17236H9.05159C7.25306 2.17515 5.79576 3.63245 5.79297 5.43098Z" fill="#2F9AAA"/>
<path d="M11.9487 0H9.05213C6.05306 0.000999187 3.62209 2.43197 3.62109 5.43104V6.85397C8.32799 8.63897 8.32799 12.0859 8.32799 13.7586H12.6728C12.6728 12.1909 12.6728 8.64983 17.3797 6.85397V5.43104C17.3787 2.43197 14.9477 0.000999187 11.9487 0ZM11.2245 12.3103H9.77627C9.5763 12.3103 9.4142 12.1482 9.4142 11.9483C9.4142 11.7483 9.5763 11.5862 9.77627 11.5862H11.2245C11.4245 11.5862 11.5866 11.7483 11.5866 11.9483C11.5866 12.1482 11.4245 12.3103 11.2245 12.3103ZM11.2245 10.8621H9.77627C9.5763 10.8621 9.4142 10.7 9.4142 10.5C9.4142 10.3 9.5763 10.1379 9.77627 10.1379H11.2245C11.4245 10.1379 11.5866 10.3 11.5866 10.5C11.5866 10.7 11.4245 10.8621 11.2245 10.8621ZM11.2245 9.41379H9.77627C9.5763 9.41379 9.4142 9.25169 9.4142 9.05173C9.4142 8.85176 9.5763 8.68966 9.77627 8.68966H11.2245C11.4245 8.68966 11.5866 8.85176 11.5866 9.05173C11.5866 9.25169 11.4245 9.41379 11.2245 9.41379ZM15.9314 5.86914C15.9294 6.1328 15.7855 6.37492 15.5549 6.50276C14.1993 7.25369 14.1993 7.60345 13.7156 7.60345H7.28523C6.80296 7.60345 6.80368 7.25478 5.44592 6.50276C5.21532 6.37492 5.07143 6.1328 5.06937 5.86914V5.43104C5.07077 3.232 6.85309 1.44967 9.05213 1.44828H11.9487C14.1477 1.44967 15.93 3.232 15.9314 5.43104V5.86914Z" fill="#2F9AAA"/>
<path d="M11.9475 2.17236H10.8613V6.87926H13.7144C14.1774 6.49618 14.6756 6.15793 15.2025 5.86909L15.2062 5.43098C15.2034 3.63245 13.7461 2.17515 11.9475 2.17236Z" fill="#2F9AAA"/>
<path d="M13.3965 13.7585H14.4827C16.0824 13.7585 17.3792 12.4617 17.3792 10.862V7.63232C13.3965 9.27612 13.3965 12.2596 13.3965 13.7585ZM15.931 10.862C16.1309 10.862 16.293 11.0241 16.293 11.224C16.293 11.424 16.1309 11.5861 15.931 11.5861H15.2068C15.0069 11.5861 14.8448 11.424 14.8448 11.224C14.8448 11.0241 15.0069 10.862 15.2068 10.862H15.931Z" fill="#2F9AAA"/>
<path d="M14.6163 16.6553H6.38281L6.92592 15.207H14.0731L14.6163 16.6553Z" fill="#2F9AAA"/>
<path d="M15.971 20.2759H5.0293L5.5724 18.8276H15.4279L15.971 20.2759Z" fill="#2F9AAA"/>
</svg>
